<mxfile host="Electron" agent="Mozilla/5.0 (Windows NT 10.0; Win64; x64) AppleWebKit/537.36 (KHTML, like Gecko) draw.io/24.7.17 Chrome/128.0.6613.36 Electron/32.0.1 Safari/537.36" version="24.7.17">
  <diagram name="Page-1" id="0ybpw4rYyCEMNRAODBhI">
    <mxGraphModel dx="3191" dy="1868" grid="1" gridSize="10" guides="1" tooltips="1" connect="1" arrows="1" fold="1" page="1" pageScale="1" pageWidth="850" pageHeight="1100" math="0" shadow="0">
      <root>
        <mxCell id="0" />
        <mxCell id="1" parent="0" />
        <mxCell id="xoHWAq65cLSNZu2BRZ2m-1" value="Window" style="rounded=0;whiteSpace=wrap;html=1;" parent="1" vertex="1">
          <mxGeometry x="40" y="10" width="120" height="30" as="geometry" />
        </mxCell>
        <mxCell id="xoHWAq65cLSNZu2BRZ2m-2" value="Scene" style="rounded=0;whiteSpace=wrap;html=1;" parent="1" vertex="1">
          <mxGeometry x="210" y="10" width="120" height="30" as="geometry" />
        </mxCell>
        <mxCell id="xoHWAq65cLSNZu2BRZ2m-3" value="Panel" style="rounded=0;whiteSpace=wrap;html=1;" parent="1" vertex="1">
          <mxGeometry x="390" y="10" width="120" height="30" as="geometry" />
        </mxCell>
        <mxCell id="xoHWAq65cLSNZu2BRZ2m-4" value="Slider" style="rounded=0;whiteSpace=wrap;html=1;" parent="1" vertex="1">
          <mxGeometry x="570" y="10" width="120" height="30" as="geometry" />
        </mxCell>
        <mxCell id="xoHWAq65cLSNZu2BRZ2m-5" value="Interactivity policy" style="rounded=0;whiteSpace=wrap;html=1;" parent="1" vertex="1">
          <mxGeometry x="800" y="10" width="120" height="30" as="geometry" />
        </mxCell>
        <mxCell id="xoHWAq65cLSNZu2BRZ2m-6" value="State change policy" style="rounded=0;whiteSpace=wrap;html=1;" parent="1" vertex="1">
          <mxGeometry x="960" y="10" width="120" height="30" as="geometry" />
        </mxCell>
        <mxCell id="xoHWAq65cLSNZu2BRZ2m-7" value="Glyph update policy" style="rounded=0;whiteSpace=wrap;html=1;" parent="1" vertex="1">
          <mxGeometry x="1120" y="10" width="120" height="30" as="geometry" />
        </mxCell>
        <mxCell id="xoHWAq65cLSNZu2BRZ2m-8" value="Glyph" style="rounded=0;whiteSpace=wrap;html=1;" parent="1" vertex="1">
          <mxGeometry x="1280" y="10" width="120" height="30" as="geometry" />
        </mxCell>
        <mxCell id="xoHWAq65cLSNZu2BRZ2m-9" value="" style="endArrow=none;dashed=1;html=1;strokeWidth=2;rounded=0;" parent="1" target="xoHWAq65cLSNZu2BRZ2m-1" edge="1">
          <mxGeometry width="50" height="50" relative="1" as="geometry">
            <mxPoint x="100" y="1660" as="sourcePoint" />
            <mxPoint x="550" y="130" as="targetPoint" />
          </mxGeometry>
        </mxCell>
        <mxCell id="xoHWAq65cLSNZu2BRZ2m-10" value="" style="endArrow=none;dashed=1;html=1;strokeWidth=2;rounded=0;" parent="1" target="xoHWAq65cLSNZu2BRZ2m-2" edge="1">
          <mxGeometry width="50" height="50" relative="1" as="geometry">
            <mxPoint x="270" y="1660" as="sourcePoint" />
            <mxPoint x="270" y="70" as="targetPoint" />
          </mxGeometry>
        </mxCell>
        <mxCell id="xoHWAq65cLSNZu2BRZ2m-11" value="" style="endArrow=none;dashed=1;html=1;strokeWidth=2;rounded=0;" parent="1" target="xoHWAq65cLSNZu2BRZ2m-3" edge="1">
          <mxGeometry width="50" height="50" relative="1" as="geometry">
            <mxPoint x="450" y="1660" as="sourcePoint" />
            <mxPoint x="450" y="70" as="targetPoint" />
          </mxGeometry>
        </mxCell>
        <mxCell id="xoHWAq65cLSNZu2BRZ2m-12" value="" style="endArrow=none;dashed=1;html=1;strokeWidth=2;rounded=0;" parent="1" target="xoHWAq65cLSNZu2BRZ2m-4" edge="1">
          <mxGeometry width="50" height="50" relative="1" as="geometry">
            <mxPoint x="630" y="1660" as="sourcePoint" />
            <mxPoint x="630" y="70" as="targetPoint" />
          </mxGeometry>
        </mxCell>
        <mxCell id="xoHWAq65cLSNZu2BRZ2m-13" value="" style="endArrow=none;dashed=1;html=1;strokeWidth=2;rounded=0;" parent="1" target="xoHWAq65cLSNZu2BRZ2m-5" edge="1">
          <mxGeometry width="50" height="50" relative="1" as="geometry">
            <mxPoint x="860" y="1660" as="sourcePoint" />
            <mxPoint x="850" y="70" as="targetPoint" />
          </mxGeometry>
        </mxCell>
        <mxCell id="xoHWAq65cLSNZu2BRZ2m-14" value="" style="endArrow=none;dashed=1;html=1;strokeWidth=2;rounded=0;" parent="1" target="xoHWAq65cLSNZu2BRZ2m-6" edge="1">
          <mxGeometry width="50" height="50" relative="1" as="geometry">
            <mxPoint x="1020" y="1660" as="sourcePoint" />
            <mxPoint x="1010" y="70" as="targetPoint" />
          </mxGeometry>
        </mxCell>
        <mxCell id="xoHWAq65cLSNZu2BRZ2m-15" value="" style="endArrow=none;dashed=1;html=1;strokeWidth=2;rounded=0;" parent="1" target="xoHWAq65cLSNZu2BRZ2m-7" edge="1">
          <mxGeometry width="50" height="50" relative="1" as="geometry">
            <mxPoint x="1180" y="1660" as="sourcePoint" />
            <mxPoint x="1170" y="70" as="targetPoint" />
          </mxGeometry>
        </mxCell>
        <mxCell id="xoHWAq65cLSNZu2BRZ2m-16" value="" style="endArrow=none;dashed=1;html=1;strokeWidth=2;rounded=0;" parent="1" target="xoHWAq65cLSNZu2BRZ2m-8" edge="1">
          <mxGeometry width="50" height="50" relative="1" as="geometry">
            <mxPoint x="1340" y="1660" as="sourcePoint" />
            <mxPoint x="1330" y="70" as="targetPoint" />
          </mxGeometry>
        </mxCell>
        <mxCell id="xoHWAq65cLSNZu2BRZ2m-17" value="" style="endArrow=classic;html=1;rounded=0;entryX=1;entryY=1;entryDx=0;entryDy=0;exitX=0;exitY=1;exitDx=0;exitDy=0;" parent="1" source="xoHWAq65cLSNZu2BRZ2m-19" target="xoHWAq65cLSNZu2BRZ2m-19" edge="1">
          <mxGeometry width="50" height="50" relative="1" as="geometry">
            <mxPoint x="100" y="100" as="sourcePoint" />
            <mxPoint x="170" y="90" as="targetPoint" />
          </mxGeometry>
        </mxCell>
        <mxCell id="xoHWAq65cLSNZu2BRZ2m-18" value="" style="rounded=0;whiteSpace=wrap;html=1;" parent="1" vertex="1">
          <mxGeometry x="260" y="100" width="20" height="1530" as="geometry" />
        </mxCell>
        <mxCell id="xoHWAq65cLSNZu2BRZ2m-19" value="MouseWheel(Point, Delta)" style="text;html=1;align=center;verticalAlign=middle;whiteSpace=wrap;rounded=0;" parent="1" vertex="1">
          <mxGeometry x="100" y="70" width="160" height="30" as="geometry" />
        </mxCell>
        <mxCell id="xoHWAq65cLSNZu2BRZ2m-21" value="" style="rounded=0;whiteSpace=wrap;html=1;" parent="1" vertex="1">
          <mxGeometry x="440" y="160" width="20" height="1410" as="geometry" />
        </mxCell>
        <mxCell id="xoHWAq65cLSNZu2BRZ2m-22" value="" style="rounded=0;whiteSpace=wrap;html=1;" parent="1" vertex="1">
          <mxGeometry x="620" y="280" width="20" height="1200" as="geometry" />
        </mxCell>
        <mxCell id="xoHWAq65cLSNZu2BRZ2m-23" value="" style="endArrow=classic;html=1;rounded=0;exitX=0;exitY=1;exitDx=0;exitDy=0;entryX=1;entryY=1;entryDx=0;entryDy=0;" parent="1" source="xoHWAq65cLSNZu2BRZ2m-24" target="xoHWAq65cLSNZu2BRZ2m-24" edge="1">
          <mxGeometry width="50" height="50" relative="1" as="geometry">
            <mxPoint x="550" y="250" as="sourcePoint" />
            <mxPoint x="600" y="280.00000000000205" as="targetPoint" />
          </mxGeometry>
        </mxCell>
        <mxCell id="xoHWAq65cLSNZu2BRZ2m-24" value="MouseWheel(Point, Delta)" style="text;html=1;align=center;verticalAlign=middle;whiteSpace=wrap;rounded=0;" parent="1" vertex="1">
          <mxGeometry x="460" y="250" width="160" height="30" as="geometry" />
        </mxCell>
        <mxCell id="xoHWAq65cLSNZu2BRZ2m-26" value="[Point is inside]" style="text;html=1;align=center;verticalAlign=middle;whiteSpace=wrap;rounded=0;fillColor=none;strokeColor=none;perimeterSpacing=0;shadow=0;glass=0;container=0;dropTarget=0;backgroundOutline=0;comic=0;fontSize=12;" parent="1" vertex="1">
          <mxGeometry x="650" y="310" width="120" height="30" as="geometry" />
        </mxCell>
        <mxCell id="xoHWAq65cLSNZu2BRZ2m-27" value="" style="rounded=0;whiteSpace=wrap;html=1;" parent="1" vertex="1">
          <mxGeometry x="850" y="400" width="20" height="990" as="geometry" />
        </mxCell>
        <mxCell id="xoHWAq65cLSNZu2BRZ2m-28" value="" style="endArrow=classic;html=1;rounded=0;exitX=0;exitY=1;exitDx=0;exitDy=0;entryX=1;entryY=1;entryDx=0;entryDy=0;" parent="1" source="xoHWAq65cLSNZu2BRZ2m-29" target="xoHWAq65cLSNZu2BRZ2m-29" edge="1">
          <mxGeometry width="50" height="50" relative="1" as="geometry">
            <mxPoint x="730" y="370" as="sourcePoint" />
            <mxPoint x="780" y="400" as="targetPoint" />
          </mxGeometry>
        </mxCell>
        <mxCell id="xoHWAq65cLSNZu2BRZ2m-29" value="MouseWheel(Slider, Point, Delta)" style="text;html=1;align=center;verticalAlign=middle;whiteSpace=wrap;rounded=0;" parent="1" vertex="1">
          <mxGeometry x="640" y="370" width="210" height="30" as="geometry" />
        </mxCell>
        <mxCell id="xoHWAq65cLSNZu2BRZ2m-30" value="" style="endArrow=none;html=1;rounded=0;exitX=0;exitY=1;exitDx=0;exitDy=0;entryX=1;entryY=1;entryDx=0;entryDy=0;startArrow=classic;startFill=1;endFill=0;" parent="1" source="xoHWAq65cLSNZu2BRZ2m-31" target="xoHWAq65cLSNZu2BRZ2m-31" edge="1">
          <mxGeometry width="50" height="50" relative="1" as="geometry">
            <mxPoint x="730" y="430" as="sourcePoint" />
            <mxPoint x="780" y="460" as="targetPoint" />
          </mxGeometry>
        </mxCell>
        <mxCell id="xoHWAq65cLSNZu2BRZ2m-31" value="get_State()" style="text;html=1;align=center;verticalAlign=middle;whiteSpace=wrap;rounded=0;" parent="1" vertex="1">
          <mxGeometry x="650" y="430" width="200" height="30" as="geometry" />
        </mxCell>
        <mxCell id="xoHWAq65cLSNZu2BRZ2m-32" value="" style="rounded=0;whiteSpace=wrap;html=1;" parent="1" vertex="1">
          <mxGeometry x="1010" y="640" width="20" height="60" as="geometry" />
        </mxCell>
        <mxCell id="xoHWAq65cLSNZu2BRZ2m-33" value="" style="endArrow=classic;html=1;rounded=0;exitX=0;exitY=1;exitDx=0;exitDy=0;entryX=1;entryY=1;entryDx=0;entryDy=0;" parent="1" source="xoHWAq65cLSNZu2BRZ2m-34" target="xoHWAq65cLSNZu2BRZ2m-34" edge="1">
          <mxGeometry width="50" height="50" relative="1" as="geometry">
            <mxPoint x="730" y="610" as="sourcePoint" />
            <mxPoint x="780" y="640" as="targetPoint" />
          </mxGeometry>
        </mxCell>
        <mxCell id="xoHWAq65cLSNZu2BRZ2m-34" value="SetState(State, State + Delta)" style="text;html=1;align=center;verticalAlign=middle;whiteSpace=wrap;rounded=0;" parent="1" vertex="1">
          <mxGeometry x="650" y="610" width="360" height="30" as="geometry" />
        </mxCell>
        <mxCell id="xoHWAq65cLSNZu2BRZ2m-35" value="" style="endArrow=none;html=1;rounded=0;exitX=0;exitY=1;exitDx=0;exitDy=0;entryX=1;entryY=1;entryDx=0;entryDy=0;endFill=0;startArrow=classic;startFill=1;dashed=1;" parent="1" source="xoHWAq65cLSNZu2BRZ2m-36" target="xoHWAq65cLSNZu2BRZ2m-36" edge="1">
          <mxGeometry width="50" height="50" relative="1" as="geometry">
            <mxPoint x="730" y="670" as="sourcePoint" />
            <mxPoint x="780" y="700" as="targetPoint" />
          </mxGeometry>
        </mxCell>
        <mxCell id="xoHWAq65cLSNZu2BRZ2m-36" value="State changed" style="text;html=1;align=center;verticalAlign=middle;whiteSpace=wrap;rounded=0;" parent="1" vertex="1">
          <mxGeometry x="650" y="670" width="360" height="30" as="geometry" />
        </mxCell>
        <mxCell id="xoHWAq65cLSNZu2BRZ2m-37" value="[State changed]" style="text;html=1;align=center;verticalAlign=middle;whiteSpace=wrap;rounded=0;fillColor=none;strokeColor=none;perimeterSpacing=0;shadow=0;glass=0;container=0;dropTarget=0;backgroundOutline=0;comic=0;fontSize=12;" parent="1" vertex="1">
          <mxGeometry x="660" y="730" width="120" height="30" as="geometry" />
        </mxCell>
        <mxCell id="xoHWAq65cLSNZu2BRZ2m-38" value="" style="rounded=0;whiteSpace=wrap;html=1;" parent="1" vertex="1">
          <mxGeometry x="1170" y="1030" width="20" height="150" as="geometry" />
        </mxCell>
        <mxCell id="xoHWAq65cLSNZu2BRZ2m-39" value="" style="endArrow=classic;html=1;rounded=0;exitX=0;exitY=1;exitDx=0;exitDy=0;entryX=1;entryY=1;entryDx=0;entryDy=0;" parent="1" source="xoHWAq65cLSNZu2BRZ2m-40" target="xoHWAq65cLSNZu2BRZ2m-40" edge="1">
          <mxGeometry width="50" height="50" relative="1" as="geometry">
            <mxPoint x="730" y="1000" as="sourcePoint" />
            <mxPoint x="780" y="1030" as="targetPoint" />
          </mxGeometry>
        </mxCell>
        <mxCell id="xoHWAq65cLSNZu2BRZ2m-40" value="Update(Glyph, State)" style="text;html=1;align=center;verticalAlign=middle;whiteSpace=wrap;rounded=0;" parent="1" vertex="1">
          <mxGeometry x="650" y="1000" width="520" height="30" as="geometry" />
        </mxCell>
        <mxCell id="xoHWAq65cLSNZu2BRZ2m-41" value="" style="endArrow=classic;html=1;rounded=0;exitX=0;exitY=1;exitDx=0;exitDy=0;entryX=0;entryY=0;entryDx=0;entryDy=0;" parent="1" source="xoHWAq65cLSNZu2BRZ2m-42" edge="1">
          <mxGeometry width="50" height="50" relative="1" as="geometry">
            <mxPoint x="1280" y="1060" as="sourcePoint" />
            <mxPoint x="1330" y="1090" as="targetPoint" />
          </mxGeometry>
        </mxCell>
        <mxCell id="xoHWAq65cLSNZu2BRZ2m-42" value="SetPosition(Position)" style="text;html=1;align=center;verticalAlign=middle;whiteSpace=wrap;rounded=0;" parent="1" vertex="1">
          <mxGeometry x="1190" y="1060" width="140" height="30" as="geometry" />
        </mxCell>
        <mxCell id="xoHWAq65cLSNZu2BRZ2m-43" value="" style="rounded=0;whiteSpace=wrap;html=1;" parent="1" vertex="1">
          <mxGeometry x="1330" y="1090" width="20" height="60" as="geometry" />
        </mxCell>
        <mxCell id="xoHWAq65cLSNZu2BRZ2m-44" value="" style="endArrow=classic;html=1;rounded=0;exitX=0;exitY=1;exitDx=0;exitDy=0;entryX=1;entryY=1;entryDx=0;entryDy=0;" parent="1" source="xoHWAq65cLSNZu2BRZ2m-45" target="xoHWAq65cLSNZu2BRZ2m-45" edge="1">
          <mxGeometry width="50" height="50" relative="1" as="geometry">
            <mxPoint x="730" y="1210" as="sourcePoint" />
            <mxPoint x="780" y="1240" as="targetPoint" />
          </mxGeometry>
        </mxCell>
        <mxCell id="xoHWAq65cLSNZu2BRZ2m-45" value="Redraw(Empty)" style="text;html=1;align=center;verticalAlign=middle;whiteSpace=wrap;rounded=0;" parent="1" vertex="1">
          <mxGeometry x="650" y="1210" width="680" height="30" as="geometry" />
        </mxCell>
        <mxCell id="xoHWAq65cLSNZu2BRZ2m-46" value="" style="rounded=0;whiteSpace=wrap;html=1;" parent="1" vertex="1">
          <mxGeometry x="1330" y="1240" width="20" height="60" as="geometry" />
        </mxCell>
        <mxCell id="xoHWAq65cLSNZu2BRZ2m-47" value="" style="endArrow=classic;html=1;rounded=0;exitX=0;exitY=1;exitDx=0;exitDy=0;entryX=1;entryY=1;entryDx=0;entryDy=0;" parent="1" source="xoHWAq65cLSNZu2BRZ2m-48" target="xoHWAq65cLSNZu2BRZ2m-48" edge="1">
          <mxGeometry width="50" height="50" relative="1" as="geometry">
            <mxPoint x="400" y="250" as="sourcePoint" />
            <mxPoint x="450" y="200" as="targetPoint" />
          </mxGeometry>
        </mxCell>
        <mxCell id="xoHWAq65cLSNZu2BRZ2m-48" value="MouseWheel(Point, Delta)" style="text;html=1;align=center;verticalAlign=middle;whiteSpace=wrap;rounded=0;" parent="1" vertex="1">
          <mxGeometry x="280" y="130" width="160" height="30" as="geometry" />
        </mxCell>
        <mxCell id="xoHWAq65cLSNZu2BRZ2m-49" value="opt" style="shape=umlFrame;whiteSpace=wrap;html=1;pointerEvents=0;" parent="1" vertex="1">
          <mxGeometry x="370" y="190" width="1210" height="1320" as="geometry" />
        </mxCell>
        <mxCell id="xoHWAq65cLSNZu2BRZ2m-50" value="[Point is inside]" style="text;html=1;align=center;verticalAlign=middle;whiteSpace=wrap;rounded=0;fillColor=none;strokeColor=none;perimeterSpacing=0;shadow=0;glass=0;container=0;dropTarget=0;backgroundOutline=0;comic=0;fontSize=12;" parent="1" vertex="1">
          <mxGeometry x="470" y="190" width="120" height="30" as="geometry" />
        </mxCell>
        <mxCell id="xoHWAq65cLSNZu2BRZ2m-51" value="" style="rounded=0;whiteSpace=wrap;html=1;" parent="1" vertex="1">
          <mxGeometry x="630" y="460" width="20" height="60" as="geometry" />
        </mxCell>
        <mxCell id="xoHWAq65cLSNZu2BRZ2m-53" value="" style="endArrow=none;html=1;rounded=0;exitX=0;exitY=1;exitDx=0;exitDy=0;entryX=1;entryY=1;entryDx=0;entryDy=0;endFill=0;startArrow=classic;startFill=1;dashed=1;" parent="1" source="xoHWAq65cLSNZu2BRZ2m-54" target="xoHWAq65cLSNZu2BRZ2m-54" edge="1">
          <mxGeometry width="50" height="50" relative="1" as="geometry">
            <mxPoint x="560" y="1450" as="sourcePoint" />
            <mxPoint x="610" y="1480" as="targetPoint" />
          </mxGeometry>
        </mxCell>
        <mxCell id="xoHWAq65cLSNZu2BRZ2m-54" value="Handled" style="text;html=1;align=center;verticalAlign=middle;whiteSpace=wrap;rounded=0;" parent="1" vertex="1">
          <mxGeometry x="460" y="1450" width="160" height="30" as="geometry" />
        </mxCell>
        <mxCell id="xoHWAq65cLSNZu2BRZ2m-55" value="" style="endArrow=none;html=1;rounded=0;exitX=0;exitY=1;exitDx=0;exitDy=0;entryX=1;entryY=1;entryDx=0;entryDy=0;endFill=0;startArrow=classic;startFill=1;dashed=1;" parent="1" source="xoHWAq65cLSNZu2BRZ2m-56" target="xoHWAq65cLSNZu2BRZ2m-56" edge="1">
          <mxGeometry width="50" height="50" relative="1" as="geometry">
            <mxPoint x="380" y="1540" as="sourcePoint" />
            <mxPoint x="430" y="1570" as="targetPoint" />
          </mxGeometry>
        </mxCell>
        <mxCell id="xoHWAq65cLSNZu2BRZ2m-56" value="Handled" style="text;html=1;align=center;verticalAlign=middle;whiteSpace=wrap;rounded=0;" parent="1" vertex="1">
          <mxGeometry x="280" y="1540" width="160" height="30" as="geometry" />
        </mxCell>
        <mxCell id="xoHWAq65cLSNZu2BRZ2m-57" value="" style="endArrow=none;html=1;rounded=0;exitX=0;exitY=1;exitDx=0;exitDy=0;entryX=1;entryY=1;entryDx=0;entryDy=0;endFill=0;startArrow=classic;startFill=1;dashed=1;" parent="1" source="xoHWAq65cLSNZu2BRZ2m-58" target="xoHWAq65cLSNZu2BRZ2m-58" edge="1">
          <mxGeometry width="50" height="50" relative="1" as="geometry">
            <mxPoint x="190" y="1600" as="sourcePoint" />
            <mxPoint x="240" y="1630" as="targetPoint" />
          </mxGeometry>
        </mxCell>
        <mxCell id="xoHWAq65cLSNZu2BRZ2m-58" value="Handled" style="text;html=1;align=center;verticalAlign=middle;whiteSpace=wrap;rounded=0;" parent="1" vertex="1">
          <mxGeometry x="100" y="1600" width="160" height="30" as="geometry" />
        </mxCell>
        <mxCell id="xoHWAq65cLSNZu2BRZ2m-59" value="" style="endArrow=classic;html=1;rounded=0;exitX=0;exitY=1;exitDx=0;exitDy=0;entryX=1;entryY=1;entryDx=0;entryDy=0;startArrow=none;startFill=0;endFill=1;dashed=1;" parent="1" source="xoHWAq65cLSNZu2BRZ2m-60" target="xoHWAq65cLSNZu2BRZ2m-60" edge="1">
          <mxGeometry width="50" height="50" relative="1" as="geometry">
            <mxPoint x="730" y="490" as="sourcePoint" />
            <mxPoint x="780" y="520" as="targetPoint" />
          </mxGeometry>
        </mxCell>
        <mxCell id="xoHWAq65cLSNZu2BRZ2m-60" value="State" style="text;html=1;align=center;verticalAlign=middle;whiteSpace=wrap;rounded=0;" parent="1" vertex="1">
          <mxGeometry x="650" y="490" width="200" height="30" as="geometry" />
        </mxCell>
        <mxCell id="xoHWAq65cLSNZu2BRZ2m-61" value="" style="endArrow=none;html=1;rounded=0;exitX=0;exitY=1;exitDx=0;exitDy=0;entryX=1;entryY=1;entryDx=0;entryDy=0;startArrow=classic;startFill=1;endFill=0;" parent="1" source="xoHWAq65cLSNZu2BRZ2m-62" target="xoHWAq65cLSNZu2BRZ2m-62" edge="1">
          <mxGeometry width="50" height="50" relative="1" as="geometry">
            <mxPoint x="730" y="550" as="sourcePoint" />
            <mxPoint x="780" y="580" as="targetPoint" />
          </mxGeometry>
        </mxCell>
        <mxCell id="xoHWAq65cLSNZu2BRZ2m-62" value="SetState(State + Delta, Promote)" style="text;html=1;align=center;verticalAlign=middle;whiteSpace=wrap;rounded=0;" parent="1" vertex="1">
          <mxGeometry x="650" y="550" width="200" height="30" as="geometry" />
        </mxCell>
        <mxCell id="xoHWAq65cLSNZu2BRZ2m-63" value="" style="rounded=0;whiteSpace=wrap;html=1;" parent="1" vertex="1">
          <mxGeometry x="630" y="580" width="20" height="780" as="geometry" />
        </mxCell>
        <mxCell id="xoHWAq65cLSNZu2BRZ2m-52" value="opt" style="shape=umlFrame;whiteSpace=wrap;html=1;pointerEvents=0;" parent="1" vertex="1">
          <mxGeometry x="540" y="730" width="1020" height="600" as="geometry" />
        </mxCell>
        <mxCell id="xoHWAq65cLSNZu2BRZ2m-25" value="opt" style="shape=umlFrame;whiteSpace=wrap;html=1;pointerEvents=0;" parent="1" vertex="1">
          <mxGeometry x="530" y="310" width="1040" height="1110" as="geometry" />
        </mxCell>
        <mxCell id="8r0j7dH3GyIbTW8X6Zeu-9" value="State promotion policy" style="rounded=0;whiteSpace=wrap;html=1;" vertex="1" parent="1">
          <mxGeometry x="1440" y="10" width="140" height="30" as="geometry" />
        </mxCell>
        <mxCell id="8r0j7dH3GyIbTW8X6Zeu-10" value="" style="endArrow=none;dashed=1;html=1;strokeWidth=2;rounded=0;" edge="1" parent="1" target="8r0j7dH3GyIbTW8X6Zeu-9">
          <mxGeometry width="50" height="50" relative="1" as="geometry">
            <mxPoint x="1510" y="1660" as="sourcePoint" />
            <mxPoint x="1500" y="70" as="targetPoint" />
          </mxGeometry>
        </mxCell>
        <mxCell id="8r0j7dH3GyIbTW8X6Zeu-11" value="" style="rounded=0;whiteSpace=wrap;html=1;" vertex="1" parent="1">
          <mxGeometry x="1500" y="880" width="20" height="60" as="geometry" />
        </mxCell>
        <mxCell id="8r0j7dH3GyIbTW8X6Zeu-12" value="[Promote]" style="text;html=1;align=center;verticalAlign=middle;whiteSpace=wrap;rounded=0;fillColor=none;strokeColor=none;perimeterSpacing=0;shadow=0;glass=0;container=0;dropTarget=0;backgroundOutline=0;comic=0;fontSize=12;" vertex="1" parent="1">
          <mxGeometry x="660" y="790" width="120" height="30" as="geometry" />
        </mxCell>
        <mxCell id="8r0j7dH3GyIbTW8X6Zeu-13" value="opt" style="shape=umlFrame;whiteSpace=wrap;html=1;pointerEvents=0;" vertex="1" parent="1">
          <mxGeometry x="550" y="790" width="1000" height="180" as="geometry" />
        </mxCell>
        <mxCell id="8r0j7dH3GyIbTW8X6Zeu-14" value="Promote(State)" style="text;html=1;align=center;verticalAlign=middle;whiteSpace=wrap;rounded=0;" vertex="1" parent="1">
          <mxGeometry x="650" y="850" width="850" height="30" as="geometry" />
        </mxCell>
        <mxCell id="8r0j7dH3GyIbTW8X6Zeu-15" value="" style="endArrow=classic;html=1;rounded=0;exitX=0;exitY=1;exitDx=0;exitDy=0;entryX=1;entryY=1;entryDx=0;entryDy=0;" edge="1" parent="1" source="8r0j7dH3GyIbTW8X6Zeu-14" target="8r0j7dH3GyIbTW8X6Zeu-14">
          <mxGeometry width="50" height="50" relative="1" as="geometry">
            <mxPoint x="690" y="850" as="sourcePoint" />
            <mxPoint x="740" y="880" as="targetPoint" />
          </mxGeometry>
        </mxCell>
      </root>
    </mxGraphModel>
  </diagram>
</mxfile>
